<svg width="57" height="44" viewBox="0 0 57 44" fill="none" xmlns="http://www.w3.org/2000/svg">
<path d="M0.0144012 0C0.184388 0.0276121 0.359553 0.0474585 0.516597 0.124255C4.19505 1.97081 7.87867 3.80874 11.5606 5.64926C11.8427 5.79595 12.143 5.91417 12.4027 6.10141C12.6236 6.25673 12.6884 6.5363 12.7798 6.77446C13.5193 6.82278 14.27 6.83572 14.9991 6.68386C17.6836 6.16872 19.9469 4.39378 22.6589 3.97873C24.2311 3.782 25.8421 4.06243 27.2952 4.68025C28.1391 5.01936 28.9398 5.45339 29.7699 5.82184C29.92 5.90726 30.0883 5.84169 30.2376 5.79078C31.7433 5.21006 33.3603 4.77948 34.9877 4.92876C36.5616 5.08494 37.9862 5.83565 39.3297 6.62173C40.2746 7.16707 41.2108 7.75382 42.2531 8.09552C42.871 8.31038 43.5492 8.32073 44.1834 8.17405C44.1739 7.7219 44.2533 7.18346 44.7158 6.97378C48.6039 5.02109 52.5016 3.08479 56.3905 1.13296C56.5614 1.03891 56.7521 0.994036 56.9445 0.965561C56.9514 1.66449 56.9549 2.36342 56.9411 3.06322C53.4593 4.79933 49.9742 6.52854 46.5045 8.28795C49.1242 13.5912 51.7957 18.8711 54.4284 24.1692C55.2947 23.8284 56.0903 23.3279 56.9471 22.962C56.948 23.692 56.9566 24.422 56.9411 25.152C56.1308 25.5481 55.3249 25.9536 54.5198 26.3609C54.1039 26.5844 53.5051 26.5275 53.2264 26.115C52.9804 25.7431 52.8338 25.3168 52.5982 24.9398C52.2151 25.2193 51.8535 25.5395 51.5947 25.9407C51.146 26.6112 51.026 27.4292 50.6999 28.1566C50.6257 28.3602 50.466 28.5656 50.5385 28.7934C50.7413 29.5225 50.7033 30.3112 50.4608 31.0256C49.9802 32.4494 48.9551 33.7144 47.5849 34.3607C47.0723 34.6083 46.5089 34.7421 45.9402 34.7602C45.8289 34.761 45.7685 34.818 45.7599 34.9328C45.4182 36.737 43.8978 38.2212 42.1229 38.6276C41.656 38.7501 41.1694 38.7234 40.6922 38.726C40.2858 39.8934 39.246 40.7097 38.164 41.2257C36.5081 42.0075 34.5192 41.9307 32.8926 41.1084C32.4543 42.1412 31.5854 42.9592 30.5448 43.37C29.329 43.8903 27.9276 43.8178 26.7015 43.3717C26.2157 43.5719 25.7489 43.8411 25.2199 43.9231C23.8963 44.1379 22.4699 43.9093 21.3465 43.1534C20.8339 42.8195 20.4396 42.3181 20.2437 41.7374C19.2756 41.6235 18.3756 41.186 17.6249 40.5751C16.8776 39.9625 16.208 39.2256 15.7947 38.3437C14.7092 38.449 13.5952 38.1237 12.747 37.4368C12.0472 36.9139 11.5658 36.146 11.3285 35.3116C10.5312 35.3918 9.70193 35.2848 9.00559 34.8706C7.72335 34.1234 6.85099 32.6496 6.95798 31.1499C6.9692 30.4415 7.29278 29.7745 7.74752 29.2447C7.48175 28.8106 7.17543 28.4016 6.95798 27.94C6.57141 27.1953 6.28753 26.4015 5.8768 25.6689C5.54718 25.0718 5.1002 24.5385 4.56091 24.1218C4.48756 24.0614 4.39696 24.0337 4.31153 24.0018C4.00866 24.5023 3.90081 25.2193 3.29852 25.4584C2.90418 25.6249 2.50122 25.4282 2.15693 25.2392C1.44333 24.8742 0.721962 24.5247 0.00836177 24.1615C0.00059587 23.4401 -0.00716977 22.7179 0.0126764 21.9965C0.872103 22.3399 1.66164 22.8326 2.50898 23.2019C5.16492 17.9116 7.81137 12.617 10.4518 7.31893C9.2239 6.64675 7.94943 6.05999 6.70343 5.4206C4.47289 4.30317 2.2389 3.19006 0.00836177 2.07263C0.00145875 1.38147 -0.00889647 0.690302 0.0144012 0ZM22.7987 5.94782C21.2973 6.23343 19.9503 6.98414 18.5542 7.56744C16.9587 8.25688 15.2528 8.79532 13.4969 8.76167C12.9895 8.78065 12.4916 8.66761 11.9868 8.6469C9.75802 13.1641 7.46708 17.6519 5.24776 22.1734C5.82675 22.5815 6.38503 23.0285 6.83459 23.5807C7.54129 24.4031 7.96669 25.4126 8.40244 26.3929C8.65009 26.9166 8.88306 27.4585 9.26101 27.9055C10.0083 27.5396 10.8452 27.3041 11.6831 27.43C13.1276 27.6156 14.4417 28.588 15.0216 29.9272C15.1786 29.8582 15.3339 29.7822 15.4875 29.7046C16.6257 29.1152 18.014 29.0453 19.2126 29.4932C20.1065 29.8133 20.8572 30.4769 21.293 31.3207C21.6847 31.055 22.0782 30.7832 22.5252 30.6184C23.5675 30.193 24.8023 30.3069 25.7601 30.8928C26.6903 31.4493 27.3668 32.427 27.5212 33.5047C27.5773 33.9827 27.535 34.4651 27.4772 34.9414C27.7715 35.1002 28.0795 35.2468 28.328 35.4772C28.8932 35.9846 29.2315 36.7086 29.3678 37.448C29.5542 38.5361 29.3298 39.6648 28.8535 40.6511C28.674 41.0221 28.4333 41.3586 28.2469 41.7262C29.1443 41.8297 30.1297 41.5933 30.7398 40.8909C30.8856 40.7046 31.0823 40.4862 31.0357 40.2334C30.833 40.0194 30.5525 39.8503 30.4757 39.5466C30.2885 38.9736 30.757 38.3014 31.3567 38.2781C31.764 38.2488 32.1005 38.5223 32.456 38.6785C33.3586 39.0996 34.218 39.6915 35.2371 39.7804C36.4503 39.9021 37.7472 39.456 38.5661 38.537C38.6411 38.4171 38.8241 38.2764 38.7266 38.1254C36.8067 37.1624 34.8833 36.2046 32.9643 35.2408C32.626 35.0838 32.3818 34.7274 32.4094 34.3477C32.3697 33.7722 32.9548 33.2873 33.5105 33.3779C33.8418 33.446 34.1317 33.6307 34.4329 33.7765C36.1612 34.6411 37.8878 35.5066 39.6171 36.3677C40.0511 36.5947 40.5283 36.7448 41.0192 36.7785C41.8157 36.7966 42.5974 36.4419 43.1376 35.8612C43.5199 35.4427 43.8365 34.9164 43.8383 34.3331C43.475 34.0897 43.0703 33.9206 42.6837 33.7204C41.0762 32.911 39.4609 32.118 37.8568 31.3009C37.3244 31.0636 37.1579 30.3388 37.484 29.8711C37.7429 29.4587 38.3201 29.337 38.7455 29.5501C40.5654 30.4605 42.3852 31.3717 44.205 32.282C44.6916 32.5305 45.2016 32.8023 45.7668 32.779C46.4062 32.8187 47.0085 32.5046 47.4753 32.0904C48.1328 31.4907 48.6307 30.6727 48.7178 29.7745C48.7437 29.5613 48.6825 29.3197 48.465 29.2352C43.8012 26.6474 38.6385 25.045 34.1171 22.1872C32.6994 21.2613 31.3265 20.1827 30.3929 18.7478C30.0322 18.211 29.8372 17.588 29.5084 17.0341C29.2151 16.619 28.7103 16.4137 28.2236 16.3343C27.4065 16.2014 26.5807 16.4025 25.8024 16.6423C24.4166 17.1005 22.9281 17.2455 21.4802 17.0634C20.2446 16.877 19.0055 16.3964 18.1331 15.4731C17.1115 14.4549 16.6878 12.9803 16.6636 11.5677C16.6662 11.1656 16.6369 10.7446 16.7879 10.3632C16.938 10.0474 17.2625 9.83163 17.6102 9.80575C21.0315 9.45887 24.3553 8.40098 27.4513 6.92374C26.0379 6.16872 24.4071 5.71312 22.7987 5.94782ZM29.9658 8.01614C28.2452 8.74354 26.5488 9.5348 24.7859 10.1578C22.9385 10.8127 21.035 11.3175 19.0944 11.6023C18.9321 11.6195 18.7734 11.6592 18.6206 11.7144C18.7 12.5022 18.8683 13.328 19.4015 13.9441C19.9771 14.6499 20.8866 14.977 21.7624 15.1073C22.9204 15.2496 24.1094 15.1306 25.2173 14.7664C26.0267 14.4964 26.8758 14.3152 27.7335 14.3419C28.9061 14.3186 30.1237 14.7483 30.9115 15.6405C31.2834 16.0461 31.4585 16.5793 31.7614 17.0315C32.4776 18.2248 33.4544 19.3069 34.7004 19.9575C35.8575 20.5719 37.2579 20.6409 38.4988 20.2552C38.9682 20.1223 39.4117 19.9187 39.8535 19.7159C40.2159 19.539 40.6793 19.6244 40.9571 19.9161C41.3791 20.3044 41.3238 21.0792 40.8441 21.3985C40.1011 21.8584 39.2383 22.0569 38.4202 22.3313C41.8804 24.0493 45.5131 25.4074 48.912 27.2514C49.1199 26.8959 49.1855 26.4835 49.3322 26.1038C49.7343 24.8768 50.6136 23.8491 51.7008 23.17C51.5835 22.8136 51.385 22.4926 51.2236 22.157C49.1924 18.0859 47.1517 14.02 45.1214 9.94899C44.4103 10.1699 43.6683 10.3114 42.921 10.2346C41.3161 10.0819 39.8975 9.24143 38.5385 8.43809C37.3442 7.76245 36.1215 7.00485 34.7228 6.88059C33.0618 6.77705 31.4732 7.39055 29.9658 8.01614ZM33.1248 21.2432C33.1403 21.3623 33.199 21.383 33.3008 21.3053C33.2835 21.1854 33.2249 21.1647 33.1248 21.2432ZM36.2432 21.2561C36.2449 21.3873 36.5676 21.3873 36.5694 21.2553C36.4822 21.1819 36.3286 21.1819 36.2432 21.2561ZM10.8556 29.3983C10.0177 29.5329 9.41718 30.2059 9.00387 30.8979C8.77434 31.4338 8.99006 32.0438 9.29379 32.5038C9.66397 33.0793 10.3758 33.5228 11.0739 33.3131C11.7573 33.1259 12.1862 32.5271 12.6797 32.0654C12.9705 31.7712 13.4011 31.4597 13.2777 30.9842C13.043 29.9453 11.8997 29.2162 10.8556 29.3983ZM17.0726 31.2172C16.4591 31.3259 15.8965 31.6435 15.4547 32.0784C14.843 32.6746 14.251 33.2916 13.6384 33.8878C13.4977 34.0319 13.3424 34.1769 13.2665 34.3684C13.1543 34.7205 13.2975 35.0933 13.4943 35.3866C13.93 36.0165 14.6928 36.4462 15.4694 36.3833C16.0398 36.3531 16.5575 36.045 16.951 35.6464C17.5999 35.0018 18.2453 34.352 18.895 33.7075C19.1772 33.4253 19.4447 33.1009 19.5379 32.7039C19.6544 32.3087 19.4102 31.911 19.1125 31.6685C18.5421 31.2215 17.775 31.0999 17.0726 31.2172ZM22.1852 33.201C20.6864 34.7145 19.1686 36.209 17.6723 37.7233C18.0244 38.3636 18.581 38.8658 19.1703 39.286C19.5543 39.5474 19.9969 39.7873 20.4767 39.758C20.6993 39.7588 20.8607 39.588 21.01 39.4473C22.3008 38.1487 23.5977 36.857 24.892 35.5618C25.3787 35.0777 25.729 34.3564 25.5444 33.6626C25.3649 32.8748 24.5745 32.2647 23.7617 32.3329C23.1352 32.3709 22.6063 32.7661 22.1852 33.201ZM26.195 37.0373C25.0336 38.2057 23.8695 39.3705 22.7012 40.5328C22.4932 40.7511 22.2249 40.9358 22.1239 41.2344C22.4225 41.5303 22.7918 41.7538 23.1956 41.8746C23.8816 42.067 24.6375 42.1283 25.3088 41.8461C25.7963 41.6485 26.1078 41.2016 26.434 40.8124C27.0225 40.0522 27.5057 39.1289 27.4531 38.1409C27.4522 37.6431 27.2839 37.0736 26.8232 36.8164C26.585 36.7181 26.3563 36.8742 26.195 37.0373Z" fill="#014086"/>
<path d="M55.6407 18.6963C55.9988 18.6065 56.4242 18.6531 56.6805 18.9465C57.0938 19.359 57.0144 20.1183 56.5252 20.4384C56.0109 20.8164 55.1851 20.5385 55.0238 19.9146C54.8478 19.4211 55.1593 18.8637 55.6407 18.6963Z" fill="#014086"/>
</svg>
