<svg width="41" height="46" viewBox="0 0 41 46" fill="none" xmlns="http://www.w3.org/2000/svg">
<path d="M3.45053 2.37301C4.79588 0.0253572 8.51431 -0.373504 10.3485 1.62428C11.8116 2.92931 11.7688 5.02505 11.2264 6.74293C13.3854 8.80369 15.7049 10.7105 17.8496 12.7923C19.848 11.8826 22.3496 12.0365 23.8841 13.7159C26.0537 12.7922 28.177 11.7741 30.3324 10.8155C30.0791 8.86317 31.0747 6.73944 33.0374 6.05019C35.514 4.88511 38.7542 6.69745 39.0682 9.34599C39.4715 11.4557 38.0476 13.7334 35.8922 14.2162C34.215 14.7376 32.4521 14.0098 31.246 12.8552C29.087 13.7614 26.9816 14.7725 24.8297 15.6962C24.8904 17.0082 24.6941 18.4042 23.7092 19.3804C22.164 21.2417 19.0201 21.3257 17.3251 19.6218C15.9012 18.3552 15.68 16.179 16.5007 14.5311C14.2525 12.5054 12.0757 10.3886 9.72405 8.47481C8.82477 8.53079 7.98616 9.05211 7.05477 8.94714C6.01632 8.99263 5.11348 8.45731 4.23561 7.98848C2.80819 6.51201 2.2515 4.14337 3.45053 2.37301ZM5.56311 3.02727C4.78874 4.16786 4.8387 6.06068 6.32678 6.59948C7.55437 7.25025 8.7534 6.33008 9.37433 5.33294C9.38147 5.01106 9.39574 4.37429 9.40287 4.0524C8.76053 2.53045 6.90489 2.13859 5.56311 3.02727ZM32.5663 9.69937C32.3379 10.854 33.2658 12.1905 34.5326 12.1345C35.8887 12.3899 37.0948 11.0744 36.8664 9.78684C36.7951 8.48881 35.3891 7.77856 34.1936 7.80655C33.5548 8.32786 32.602 8.7792 32.5663 9.69937ZM19.4555 14.5451C18.0281 15.2029 17.764 17.3546 19.12 18.2293C20.4654 19.4049 22.7849 18.0823 22.5958 16.3855C22.578 14.9125 20.7901 13.9503 19.4555 14.5451Z" fill="#014086"/>
<path d="M3.33667 15.3977C5.24169 15.1557 7.16417 15.2945 9.07967 15.2518C9.97101 15.2803 10.9532 15.1273 11.7362 15.6717C11.7642 25.0442 11.7362 34.4203 11.7467 43.7929C13.1763 43.7893 14.6025 43.8036 16.0321 43.7822C16.3117 38.3523 15.8678 32.8938 16.2663 27.4746C19.0312 27.3073 21.8205 27.2575 24.5819 27.503C24.8511 32.9223 24.6274 38.3558 24.7008 43.7822C26.1619 43.6862 27.7208 44.0847 29.112 43.5082C28.9862 42.6044 28.9058 41.6971 28.9268 40.7861C28.9722 35.9113 28.8883 31.0364 28.9722 26.1651C28.9442 25.7132 28.9268 25.2613 28.9198 24.8129C28.9827 23.9554 29.0631 23.0978 29.161 22.2439C29.3567 22.1335 29.7482 21.9165 29.9439 21.8097C32.2265 21.8311 34.5125 21.8133 36.795 21.824C36.9872 21.9343 37.3682 22.1585 37.5605 22.2723C37.7178 29.4352 37.5815 36.6087 37.6269 43.7751C38.8468 43.8747 40.6539 43.3303 41 44.9814C40.8777 45.2198 40.6295 45.693 40.5071 45.9314C31.7755 46.0738 23.0369 45.9421 14.3019 45.9919C9.60049 45.9599 4.89564 46.0595 0.194276 45.9314C-0.0818639 45.2447 -0.0608896 44.5224 0.239718 43.8498C1.18698 43.8036 2.13774 43.7929 3.09199 43.7929C3.25628 34.8438 3.10597 25.8876 3.1654 16.9384C3.18287 16.4154 3.26327 15.9065 3.33667 15.3977ZM5.33606 17.4686C5.31509 26.2434 5.32208 35.0181 5.33606 43.7929C6.75871 43.8 8.18484 43.7929 9.60749 43.7929C9.61098 35.0181 9.60749 26.2469 9.61098 17.4722C8.18484 17.4722 6.7622 17.4722 5.33606 17.4686ZM31.2407 23.9981C31.1603 30.5952 31.2233 37.1958 31.2093 43.7965C32.6249 43.7929 34.0406 43.7965 35.4562 43.7894C35.4562 37.1923 35.4737 30.5952 35.4458 23.9981C34.0441 24.0088 32.6424 24.0123 31.2407 23.9981ZM18.2517 29.5348C18.2447 34.2851 18.2412 39.0319 18.2517 43.7822C19.6743 43.8107 21.1005 43.7965 22.5266 43.7858C22.5336 39.039 22.5266 34.2922 22.5301 29.549C21.104 29.5526 19.6778 29.5597 18.2517 29.5348Z" fill="#014086"/>
</svg>
