<svg width="51" height="51" viewBox="0 0 51 51" fill="none" xmlns="http://www.w3.org/2000/svg">
<path d="M12.7347 35.4475C13.9745 34.8354 15.3203 33.4229 16.772 34.2979C16.8819 34.8158 16.925 35.3415 16.8976 35.8751C12.7269 38.2685 8.59929 40.7364 4.3972 43.0709C5.29961 43.3691 6.27658 43.526 7.0809 44.0714C7.31239 44.656 7.10444 45.2798 7.05736 45.884C5.20546 46.2215 3.45165 45.3308 1.66645 44.9895C1.06222 44.7776 -0.0991541 44.6717 0.00678096 43.8085C0.218651 41.988 0.779715 40.2106 1.25838 38.4411C1.4271 37.4053 3.04359 37.2601 3.4948 38.1508C3.77337 39.0336 3.34572 39.9321 3.21624 40.8031C6.50415 39.2415 9.54486 37.2013 12.7347 35.4475Z" fill="#014086"/>
<path d="M24.2275 0.673051C24.6591 0.174764 25.4751 -0.299982 26.0597 0.23754C27.3937 1.40283 28.61 2.70151 29.842 3.97273C30.6032 4.54557 30.2658 6.1699 29.2025 6.06005C28.0176 6.1699 27.4447 4.88299 26.6522 4.21991C26.5894 8.91244 26.6797 13.605 26.609 18.2936C26.66 19.557 25.1534 19.4079 24.3295 19.1646C24.1019 14.2484 24.3098 9.32049 24.2157 4.40039C23.1759 5.07916 22.3442 6.52302 20.9239 5.91095C20.7944 5.6363 20.5354 5.08701 20.406 4.81237C21.4418 3.23119 22.9327 2.03059 24.2275 0.673051Z" fill="#014086"/>
<path d="M29.2296 11.5683C30.03 11.0936 30.9677 11.3447 31.6779 11.8665C35.5896 14.2873 39.7682 16.2687 43.5779 18.8504C43.5387 23.3624 43.5779 27.8784 43.5622 32.3904C43.5151 32.9358 43.6289 33.7676 42.8638 33.8108C42.3263 33.8971 41.7927 33.7519 41.267 33.7087C40.9884 29.6989 41.1963 25.6734 41.1453 21.6596C36.2056 24.0883 31.619 27.1879 26.7107 29.6793C26.5381 35.6273 26.6636 41.5872 26.6479 47.5392C29.8456 45.699 33.055 43.8785 36.2527 42.0384C36.7941 41.7559 37.4259 41.34 38.0615 41.6225C38.6304 41.8893 38.701 42.5681 38.905 43.0938C37.6259 44.3022 35.982 44.9928 34.4871 45.8795C31.4307 47.5745 28.4802 49.4656 25.3375 50.9997C21.2413 48.7672 17.2393 46.3699 13.1628 44.1021C12.4997 43.7804 11.8484 43.1487 12.1584 42.3483C12.2251 41.5362 13.3394 41.34 13.924 41.7049C17.3963 43.5332 20.6646 45.7618 24.2271 47.4175C24.2507 41.6931 24.1918 35.9648 24.2624 30.2443C24.1604 30.0795 23.9564 29.7499 23.8544 29.5851C19.0952 26.9681 14.4262 24.1864 9.68263 21.5419C9.52569 25.6263 10.0004 29.7617 9.40798 33.8068C8.76453 33.8068 8.12499 33.7951 7.48938 33.7637C6.98717 31.3703 7.29714 28.9103 7.21475 26.4816C7.32853 23.8411 6.95186 21.1574 7.46976 18.5483C11.4953 16.2687 15.4973 13.9499 19.5228 11.6703C20.1192 11.1956 20.8725 11.3761 21.5709 11.4114C21.6219 12.0234 21.6572 12.6316 21.6729 13.2437C18.181 15.3192 14.6224 17.281 11.1108 19.3212C12.539 20.51 14.2849 21.232 15.8543 22.2207C19.0638 23.947 22.1359 25.9598 25.3963 27.5645C30.3046 25.0299 35.0247 22.0794 39.8781 19.4154C36.2802 17.3241 32.6156 15.3506 29.0687 13.1809C29.0923 12.6434 29.0374 12.0862 29.2296 11.5683Z" fill="#014086"/>
<path d="M34.2463 34.0428C34.8387 34.0624 35.4861 33.9251 36.0236 34.2625C39.9001 36.4793 43.7451 38.7549 47.6255 40.9678C47.4764 40.1674 47.2998 39.3709 47.1154 38.5823C47.2488 38.3469 47.5117 37.88 47.6412 37.6446C48.1983 37.6485 48.7555 37.6642 49.3165 37.6956C49.8031 39.9673 51.0233 42.2508 50.5917 44.6088C48.2847 45.0247 46.0247 46.2606 43.6431 45.829C43.6667 45.2719 43.4234 44.6363 43.7098 44.1262C44.471 43.4553 45.546 43.3808 46.472 43.063C42.2974 40.8501 38.264 38.3665 34.1639 36.0124C34.0737 35.8005 33.8892 35.3729 33.799 35.161C33.9089 34.8824 34.1325 34.3253 34.2463 34.0428Z" fill="#014086"/>
</svg>
